<?xml version="1.0" encoding="UTF-8" standalone="no"?>
<svg
   xmlns:dc="http://purl.org/dc/elements/1.1/"
   xmlns:cc="http://creativecommons.org/ns#"
   xmlns:rdf="http://www.w3.org/1999/02/22-rdf-syntax-ns#"
   xmlns:svg="http://www.w3.org/2000/svg"
   xmlns="http://www.w3.org/2000/svg"
   xmlns:xlink="http://www.w3.org/1999/xlink"
   xmlns:sodipodi="http://sodipodi.sourceforge.net/DTD/sodipodi-0.dtd"
   xmlns:inkscape="http://www.inkscape.org/namespaces/inkscape"
   width="96px"
   height="96px"
   version="1.1"
   viewBox="0 0 96 96"
   id="svg2"
   inkscape:version="0.48.2 r9819"
   sodipodi:docname="uds.svg">
  <metadata
     id="metadata88">
    <rdf:RDF>
      <cc:Work
         rdf:about="">
        <dc:format>image/svg+xml</dc:format>
        <dc:type
           rdf:resource="http://purl.org/dc/dcmitype/StillImage" />
        <dc:title />
      </cc:Work>
    </rdf:RDF>
  </metadata>
  <defs
     id="defs86">
    <linearGradient
       id="HIGHLIGHTS_2_-5"
       y2="87.476997"
       gradientUnits="userSpaceOnUse"
       y1="8.2319002"
       x2="48"
       x1="48"
       gradientTransform="translate(139.25146,-1.7611412)">
      <stop
         stop-color="#FFF"
         offset="0"
         id="stop79-9" />
      <stop
         stop-color="#FFF"
         stop-opacity="0"
         offset="1"
         id="stop81-4" />
    </linearGradient>
    <linearGradient
       id="LIGHT_BEVEL_3_-9"
       y2="78.507004"
       gradientUnits="userSpaceOnUse"
       y1="3.5234001"
       x2="48"
       x1="48"
       gradientTransform="translate(139.25146,-1.7611412)">
      <stop
         stop-color="#FFF"
         offset="0"
         id="stop73-0" />
      <stop
         stop-color="#FFF"
         stop-opacity="0.18"
         offset="1"
         id="stop75-9" />
    </linearGradient>
    <linearGradient
       id="DARK_BEVEL_3_-1"
       y2="88.134003"
       gradientUnits="userSpaceOnUse"
       y1="7.4394999"
       x2="48"
       x1="48"
       gradientTransform="translate(139.25146,-1.7611412)">
      <stop
         stop-color="#000"
         stop-opacity="0"
         offset="0.3614"
         id="stop67-7" />
      <stop
         stop-color="#000"
         offset="1"
         id="stop69-7" />
    </linearGradient>
    <filter
       color-interpolation-filters="sRGB"
       id="filter5757"
       inkscape:label="Drop shadow"
       width="1.5"
       height="1.5"
       x="-0.25"
       y="-0.25">
      <feGaussianBlur
         id="feGaussianBlur5759"
         in="SourceAlpha"
         stdDeviation="2"
         result="blur" />
      <feColorMatrix
         id="feColorMatrix5761"
         result="bluralpha"
         type="matrix"
         values="1 0 0 0 0 0 1 0 0 0 0 0 1 0 0 0 0 0 0.5 0 " />
      <feOffset
         id="feOffset5763"
         in="bluralpha"
         dx="2"
         dy="0"
         result="offsetBlur" />
      <feMerge
         id="feMerge5765">
        <feMergeNode
           id="feMergeNode5767"
           in="offsetBlur" />
        <feMergeNode
           id="feMergeNode5769"
           in="SourceGraphic" />
      </feMerge>
    </filter>
    <linearGradient
       inkscape:collect="always"
       xlink:href="#linearGradient5498-6"
       id="linearGradient5669"
       gradientUnits="userSpaceOnUse"
       gradientTransform="matrix(1.025641,0,0,1.025641,13.254187,8.170376)"
       x1="-45.418045"
       y1="19.40753"
       x2="-45.418045"
       y2="52.073322" />
    <linearGradient
       id="linearGradient5498-6">
      <stop
         style="stop-color:#f7b063;stop-opacity:1;"
         offset="0"
         id="stop5500-9" />
      <stop
         style="stop-color:#df3b15;stop-opacity:1;"
         offset="1"
         id="stop5502-5" />
    </linearGradient>
    <linearGradient
       inkscape:collect="always"
       xlink:href="#linearGradient5498"
       id="linearGradient5671"
       gradientUnits="userSpaceOnUse"
       gradientTransform="translate(11.700592,9.5067312)"
       x1="-45.418045"
       y1="19.40753"
       x2="-45.418045"
       y2="52.073322" />
    <linearGradient
       id="linearGradient5498">
      <stop
         style="stop-color:#f4952f;stop-opacity:1;"
         offset="0"
         id="stop5500" />
      <stop
         style="stop-color:#dd4814;stop-opacity:1;"
         offset="1"
         id="stop5502" />
    </linearGradient>
    <linearGradient
       inkscape:collect="always"
       xlink:href="#linearGradient5498-6"
       id="linearGradient3984"
       gradientUnits="userSpaceOnUse"
       gradientTransform="matrix(1.025641,0,0,1.025641,13.254187,8.170376)"
       x1="-45.418045"
       y1="19.40753"
       x2="-45.418045"
       y2="52.073322" />
    <linearGradient
       inkscape:collect="always"
       xlink:href="#linearGradient5498"
       id="linearGradient3986"
       gradientUnits="userSpaceOnUse"
       gradientTransform="translate(11.700592,9.5067312)"
       x1="-45.418045"
       y1="19.40753"
       x2="-45.418045"
       y2="52.073322" />
  </defs>
  <sodipodi:namedview
     pagecolor="#ffffff"
     bordercolor="#666666"
     borderopacity="1"
     objecttolerance="10"
     gridtolerance="10"
     guidetolerance="10"
     inkscape:pageopacity="0"
     inkscape:pageshadow="2"
     inkscape:window-width="1366"
     inkscape:window-height="721"
     id="namedview84"
     showgrid="false"
     inkscape:zoom="1.2291667"
     inkscape:cx="-169.32348"
     inkscape:cy="61.196221"
     inkscape:window-x="1676"
     inkscape:window-y="-3"
     inkscape:window-maximized="1"
     inkscape:current-layer="svg2" />
  <rect
     id="BOUNDING_BOX_1_"
     width="96"
     height="96"
     fill="none" />
  <path
     id="SHADOW_1_"
     d="M88.023,49c0,29.633-10.364,40-40,40-29.635,0-40-10.367-40-40,0-29.634,10.366-40,40-40,29.636,0,40,10.365,40,40z"
     opacity="0.4" />
  <path
     id="GREEN_4_1_"
     d="M8,47.978c0,29.633,10.365,40,40,40,29.637,0,40-10.367,40-40,0-28.985-9.926-39.53-38.091-39.978h-3.818c-28.163,0.448-38.091,10.993-38.091,39.978z"
     style="fill:#dd4814;fill-opacity:1"
     fill="#ED9507" />
  <g
     id="g3812"
     transform="matrix(1.2390364,0,0,1.2390364,-185.80646,-832.15004)"
     inkscape:export-xdpi="90"
     inkscape:export-ydpi="90"
     style="filter:url(#filter5757)">
    <path
       inkscape:connector-curvature="0"
       id="path3755"
       d="m 166.59752,726.71595 c 20.45017,-32.54539 20.65674,-32.7488 20.65674,-32.7488 l 23.54869,31.93517"
       style="fill:none;stroke:#ffffff;stroke-width:1.43487394;stroke-linecap:round;stroke-linejoin:round;stroke-miterlimit:4;stroke-opacity:1;stroke-dasharray:none" />
    <path
       inkscape:connector-curvature="0"
       id="path3761"
       d="m 173.47062,716.30849 c 0,0 3.33282,5.98633 9.49349,3.80949 6.16068,-2.17686 7.37261,-1.30611 11.00842,1.52379 3.63581,2.8299 9.99847,-2.28569 9.59449,-5.33328"
       style="fill:none;stroke:#ffffff;stroke-width:1.46783197;stroke-linecap:round;stroke-linejoin:round;stroke-miterlimit:4;stroke-opacity:1;stroke-dasharray:none" />
    <path
       id="path3764"
       d="m 187.25443,694.426 c -0.084,4.1e-4 -0.26742,0.29101 -7.63637,12.25099 -5.22381,8.47837 -5.97707,9.75387 -5.88368,9.95957 0.17348,0.38209 1.07743,1.33651 1.77839,1.87948 2.23885,1.73422 4.46561,2.05182 7.7992,1.11139 2.62148,-0.73951 3.49283,-0.89508 5.10377,-0.90542 1.31309,-0.009 1.51877,0.0168 2.2969,0.28751 0.99925,0.3476 1.64316,1.01393 3.26539,2.064 0.6476,0.41921 1.51862,0.5814 1.75696,0.65653 1.16874,0.36852 2.97253,0.0582 4.58953,-0.78955 0.77079,-0.40411 1.18503,-0.72148 1.9498,-1.48471 1.00837,-1.00634 1.38471,-1.65062 1.3113,-2.24852 -0.0331,-0.26915 -16.17189,-22.78196 -16.33119,-22.78127 z m 2.63973,11.62879 a 0.71702448,0.71799323 0 0 1 0.0514,0 0.71702448,0.71799323 0 0 1 0.59994,0.34328 l 6.19651,9.76218 a 0.71702448,0.71799323 0 1 1 -1.20845,0.77239 l -6.2008,-9.76647 a 0.71702448,0.71799323 0 0 1 0.56138,-1.11138 z m -5.78941,3.66028 a 0.71702448,0.71799323 0 0 1 0.0729,0 0.71702448,0.71799323 0 0 1 0.59137,1.09851 l -4.13101,6.91291 a 0.71702448,0.71799323 0 1 1 -1.22988,-0.73377 l 4.13101,-6.9172 a 0.71702448,0.71799323 0 0 1 0.56566,-0.36045 z"
       style="fill:#ffffff;fill-opacity:1;stroke:none"
       inkscape:connector-curvature="0" />
  </g>
  <linearGradient
     id="Note_2_"
     y2="33.427"
     gradientUnits="userSpaceOnUse"
     y1="83.19"
     gradientTransform="matrix(0.9906 -0.1369 0.1369 0.9906 -1.4204 -4.6884)"
     x2="36.077"
     x1="46.655">
    <stop
       stop-color="#F0D558"
       offset="0"
       id="stop18" />
    <stop
       stop-color="#FAF98C"
       offset="1"
       id="stop20" />
  </linearGradient>
  <radialGradient
     id="SVGID_1_"
     gradientUnits="userSpaceOnUse"
     cy="29.097"
     cx="43.587"
     r="4.5183">
    <stop
       stop-color="#000"
       offset="0"
       id="stop24" />
    <stop
       stop-color="#E4E4E4"
       stop-opacity="0"
       offset="1"
       id="stop26" />
  </radialGradient>
  <radialGradient
     id="SVGID_2_"
     gradientUnits="userSpaceOnUse"
     cy="27.546"
     cx="46.44"
     r="4.2266">
    <stop
       stop-color="#810000"
       offset="0"
       id="stop31" />
    <stop
       stop-color="#C90000"
       offset="1"
       id="stop33" />
  </radialGradient>
  <radialGradient
     id="SVGID_3_"
     gradientUnits="userSpaceOnUse"
     cy="26.912"
     cx="46.807"
     r="2.3335">
    <stop
       stop-color="#850000"
       offset="0"
       id="stop38" />
    <stop
       stop-color="#790000"
       offset="1"
       id="stop40" />
  </radialGradient>
  <radialGradient
     id="SVGID_4_"
     gradientUnits="userSpaceOnUse"
     cy="25.307"
     cx="48.441"
     r="3.3152">
    <stop
       stop-color="#D43200"
       offset="0"
       id="stop45" />
    <stop
       stop-color="#B70000"
       offset="1"
       id="stop47" />
  </radialGradient>
  <linearGradient
     id="SVGID_5_"
     y2="50.183"
     gradientUnits="userSpaceOnUse"
     y1="64.639"
     gradientTransform="matrix(0.9903 -0.1392 0.1392 0.9903 -9.0583 17.7327)"
     x2="64.146"
     x1="64.146">
    <stop
       stop-color="#A40C09"
       offset="0"
       id="stop52" />
    <stop
       stop-color="#E60809"
       offset="1"
       id="stop54" />
  </linearGradient>
  <linearGradient
     id="DARK_BEVEL_3_"
     y2="88.134"
     gradientUnits="userSpaceOnUse"
     y1="7.4395"
     x2="48"
     x1="48">
    <stop
       stop-color="#000"
       stop-opacity="0"
       offset="0.3614"
       id="stop67" />
    <stop
       stop-color="#000"
       offset="1"
       id="stop69" />
  </linearGradient>
  <path
     id="DARK_BEVEL_2_"
     d="M88,47.978c0,29.633-10.363,40-40,40-29.635,0-40-10.367-40-40,0-29.634,10.365-40,40-40,29.637,0.001,40,10.366,40,40z"
     fill="url(#DARK_BEVEL_3_)"
     opacity="0.23" />
  <linearGradient
     id="LIGHT_BEVEL_3_"
     y2="78.507"
     gradientUnits="userSpaceOnUse"
     y1="3.5234"
     x2="48"
     x1="48">
    <stop
       stop-color="#FFF"
       offset="0"
       id="stop73" />
    <stop
       stop-color="#FFF"
       stop-opacity="0.18"
       offset="1"
       id="stop75" />
  </linearGradient>
  <path
     id="LIGHT_BEVEL_1_"
     d="M88,47.978c0,29.633-10.363,40-40,40-29.635,0-40-10.367-40-40,0-29.634,10.365-40,40-40,29.637,0.001,40,10.366,40,40z"
     fill="url(#LIGHT_BEVEL_3_)"
     opacity="0.4" />
  <linearGradient
     id="HIGHLIGHTS_2_"
     y2="87.477"
     gradientUnits="userSpaceOnUse"
     y1="8.2319"
     x2="48"
     x1="48">
    <stop
       stop-color="#FFF"
       offset="0"
       id="stop79" />
    <stop
       stop-color="#FFF"
       stop-opacity="0"
       offset="1"
       id="stop81" />
  </linearGradient>
  <path
     id="HIGHLIGHTS_1_"
     opacity="0.25"
     d="M48,7.979c-29.635,0-40,10.365-40,40,0,29.633,10.365,40,40,40,29.637,0,40-10.367,40-40,0-29.635-10.363-40-40-40zm0,79.023c-29.159,0-39-9.848-39-39.024,0-29.175,9.841-39.022,39-39.022,29.158,0,39,9.847,39,39.022,0,29.176-9.842,39.024-39,39.024z"
     fill="url(#HIGHLIGHTS_2_)" />
</svg>
